<svg width="25" height="25" viewBox="0 0 25 25" fill="none" xmlns="http://www.w3.org/2000/svg">
<g id="jam:check">
<path id="Vector" d="M11.3542 17.2796C11.2229 17.2798 11.0929 17.2542 10.9715 17.2041C10.8502 17.154 10.74 17.0804 10.6472 16.9876L6.40515 12.7446C6.30958 12.6524 6.23332 12.5421 6.18083 12.4201C6.12833 12.2982 6.10066 12.167 6.09941 12.0342C6.09816 11.9014 6.12337 11.7697 6.17357 11.6468C6.22376 11.5238 6.29793 11.4121 6.39176 11.3182C6.48558 11.2242 6.59718 11.1499 6.72004 11.0995C6.8429 11.0492 6.97456 11.0238 7.10734 11.0248C7.24012 11.0259 7.37136 11.0534 7.4934 11.1057C7.61544 11.158 7.72584 11.2341 7.81815 11.3296L11.3532 14.8646L17.7182 8.50156C17.9057 8.31392 18.16 8.20845 18.4253 8.20836C18.6906 8.20827 18.945 8.31355 19.1327 8.50106C19.3203 8.68857 19.4258 8.94294 19.4259 9.20821C19.4259 9.47348 19.3207 9.72792 19.1332 9.91556L12.0612 16.9876C11.9683 17.0804 11.8581 17.154 11.7368 17.2041C11.6154 17.2542 11.4854 17.2798 11.3542 17.2796V17.2796Z" fill="#2FAB73"/>
</g>
</svg>
